#!OML:ASF F:\VICON\USERDATA\INSTALL\rory3\rory3.ASF
:FULLY-SPECIFIED
:DEGREES
108
root 1.6301234072592812 17.908518888875363 57.20096897597937 -3.5009136480774954 -0.22230013019271916 -2.0582670562340906
lfemur 6.887003006582141 -2.992550986605315 -20.159523436300198
ltibia 40.80280394364685
lfoot -4.177835935516024 -3.981169035497504
ltoes -8.208588679851648
rfemur -19.985247708249325 0.41624378703231435 26.75975023788718
rtibia 28.77776129025086
rfoot -13.653419968312075 -10.571446766671539
rtoes -0.08492547143522389
lowerback nan -1.8711440153687733 -0.5443700489193004
upperback -0.3290981493771006 -2.3759112212737783 2.1351735297525853
thorax -5.870301213612662 -1.119431892065879 3.87447457543408
lowerneck -16.877239712595028 -3.35067988454844 -1.9065347446893122
upperneck 21.733302592538283 -4.39776046395561 1.445468200409551
head 9.777536092028175 -2.0540904549121177 0.260799962677467
lclavicle -2.5686248061847727e-15 -2.760889980782962e-15
lhumerus -28.442100037678966 -0.31079294255686873 82.27124258396638
lradius 23.28683863610572
lwrist 10.057329884790253
lhand -29.715992883856458 18.36983221956605
lfingers nan
lthumb -2.794403878500726 48.59749442870248
rclavicle -2.526379469395944e-15 -2.7220678215346024e-15
rhumerus -32.481229995386045 -21.93076199192975 -76.89560317672735
rradius 32.01628741859245
rwrist 0.7830899812055825
rhand -17.51822351252811 nan
rfingers nan
rthumb 8.649714090334427 -7.484191753177582
109
root 1.6106660482234156 17.896597916069833 56.73585501344416 -3.5414982078368293 -0.4739947271278592 -3.257325286885098
lfemur 4.175637318395378 -2.3579342766113265 -18.00921664854786
ltibia 46.136215337772356
lfoot -5.464139542809693 -2.506108678586906
ltoes -8.43260329223213
rfemur -18.592806081863493 1.1386386263865633 28.027194995729893
rtibia 29.5734225368247
rfoot -15.413674335452729 -11.419970124431076
rtoes 0.42785396124258557
lowerback nan -1.6301302773325723 0.36263866824077196
upperback -0.3168454898569683 -1.9347858788676786 2.272777102282558
thorax -5.960676027548426 -0.9240227967157292 3.547960062184396
lowerneck -16.910287335866887 -3.3787416786638214 -1.7956906462297753
upperneck 21.611251987266222 -4.448567724450296 1.4046802936388683
head 9.72160173514483 -2.0771608272815927 0.22889367698007523
lclavicle -2.5705105318121026e-15 -2.7629471090305564e-15
lhumerus -29.138898578860452 0.13389625980913733 82.42930757876127
lradius 22.749033821584185
lwrist 10.379294487964417
lhand -29.71518981589563 18.368478329128553
lfingers nan
lthumb -2.856239969954097 48.49085969761626
rclavicle -2.526315706378282e-15 -2.723843651692474e-15
rhumerus -32.53349490717036 -22.002582714574473 -76.70341683949597
rradius 32.124224041015836
rwrist 0.7042376693682804
rhand -17.50118407922188 nan
rfingers nan
rthumb 8.618633305996802 -7.494910269625254
110
root 1.5642313115180158 17.88315679365574 54.5139601386822 -3.5611005643622526 -0.7999702969734148 -4.844356297568796
lfemur 0.7173715226309092 -1.6618625039317751 -15.452635320387458
ltibia 51.34047132584219
lfoot -6.545412558678415 -1.7705161303097094
ltoes -7.993555593470169
rfemur -16.202925790107688 1.9514070200959543 29.740735045384113
rtibia 30.282265645039324
rfoot -17.121011667023538 -12.41694008268187
rtoes 0.1454772101547417
lowerback nan -1.2970409720865854 1.5439042849123852
upperback -0.3118194515629507 -1.2716550856277837 2.442585100900596
thorax -6.078541586139843 -0.6024051572955331 3.1132671433928123
lowerneck -16.97187745265923 -3.4293651292140765 -1.6509896677797995
upperneck 21.469620595207093 -4.542840018197044 1.3726752312240431
head 9.665181498205946 -2.1144477861106106 0.18915244261024597
lclavicle -2.572844875003416e-15 -2.7657523905614126e-15
lhumerus -29.824735312673972 0.772551337110488 82.58345016444628
lradius 22.431424374431256
lwrist 10.730651033188966
lhand -29.80196763791464 18.257135665906347
lfingers nan
lthumb -2.9500618263971283 48.42526428862997
rclavicle -2.5262103643431794e-15 -2.7267572452665382e-15
rhumerus -32.54864468002394 -22.036587215264984 -76.50186885023308
rradius 32.23020737351664
rwrist 0.9251733497917902
rhand -17.492052235092686 nan
rfingers nan
rthumb 8.652675634471976 -7.344963300334381
111
root 1.535282843705019 17.881376083620815 54.20623466172557 -3.5069063330901313 -0.806922315353792 -5.848927345515994
lfemur -3.1657182186014703 -1.070035010866865 -13.542359240471939
ltibia 55.75924332580625
lfoot -6.368150873916538 -0.17431872897183132
ltoes -9.606036673360355
rfemur -14.127896833314546 2.3483704128672143 30.562426406822073
rtibia 30.996677099606202
rfoot -18.40285639146962 -13.333381575441043
rtoes -0.7587999183582825
lowerback nan -0.9961204702717746 2.3833376538709397
upperback -0.2936010207508491 -0.6662287421011539 2.549979814031574
thorax -6.16899741978686 -0.3057895393739164 2.628342366079181
lowerneck -17.04265721014824 -3.5063362696088194 -1.5153393548866538
upperneck 21.313852788657794 -4.683383082503253 1.365423433522299
head 9.610272669717173 -2.166279422214484 0.14992456209184157
lclavicle -2.575067784266557e-15 -2.7688782717338264e-15
lhumerus -30.49780165929348 1.507635471290175 82.71683364146696
lradius 22.313221565685865
lwrist 11.034256777957612
lhand -29.839670033306664 18.273437642016386
lfingers nan
lthumb -3.0398377373915095 48.37692864590243
rclavicle -2.525230301158304e-15 -2.7301754675160487e-15
rhumerus -32.51252832076789 -22.018240866374143 -76.27226417671376
rradius 32.330462296675854
rwrist 1.3892228025077507
rhand -17.462616312690916 nan
rfingers nan
rthumb 8.640181981843776 -7.280243701515811
112
root 1.514035424051138 17.885842488713063 54.2207392503198 -3.499747648243055 -0.4844345030531161 -6.456284022341912
lfemur -7.35882946596943 -0.7406809008868263 -12.484707385854843
ltibia 58.93893415723984
lfoot -7.057987175231294 -0.29644060025181895
ltoes -10.524444549334044
rfemur -11.852039093217485 2.3682779067695017 30.9627575528305
rtibia 31.515851322218648
rfoot -19.03884504426375 -13.805341768321455
rtoes -2.0225726732853966
lowerback nan -0.7530552311190644 2.9911125097274436
upperback -0.28675735013169784 -0.14922753966106223 2.595739158515998
thorax -6.2251592140430105 -0.06215913250428787 2.074942803855194
lowerneck -17.058676164237617 -3.601199796183706 -1.4198460185630948
upperneck 21.16787558602762 -4.851601804553369 1.3821861008119989
head 9.56215324549071 -2.225713557605235 0.11778639192811252
lclavicle -2.5769867155133247e-15 -2.7720425564418416e-15
lhumerus -31.143072942230518 2.210311914118261 82.81060525204228
lradius 22.372878913241422
lwrist 11.249453942842607
lhand -29.91932736925353 18.16757695606987
lfingers nan
lthumb -3.1072944661126476 48.33200674103156
rclavicle -2.5250767053654175e-15 -2.7347231332053503e-15
rhumerus -32.43074637157008 -21.958804727265136 -76.02571248533174
rradius 32.427200035311685
rwrist 1.9604015206466265
rhand -17.45982792313003 nan
rfingers nan
rthumb 8.669803167216434 -7.162190155610206
113
root 1.5129167733536022 17.903778403819473 55.250035473511204 -3.4278401882426985 0.28452383060954 -6.908533481592105
lfemur -11.440464930055708 -0.76068890582961 -12.241311296353508
ltibia 60.492083786034584
lfoot -7.198256961411155 -0.05259854490305527
ltoes -11.855933152591259
rfemur -10.492568913859941 1.9529194199651714 30.890677040779998
rtibia 32.15438882343901
rfoot -18.758108048388653 -13.677424792594074
rtoes -3.3392297795098242
lowerback nan -0.5736960682227974 3.5631440013072266
upperback -0.3050632889860835 0.2653172344726997 2.597090205466361
thorax -6.243760109063675 0.14497249542411167 1.5397948519334617
lowerneck -16.998163640190366 -3.6972116059036493 -1.3804532932138778
upperneck 21.08132863960231 -5.017675417874015 1.4096391116065257
head 9.536619957280838 -2.282745761968478 0.09423086032202674
lclavicle -2.576540215102037e-15 -2.774036352522432e-15
lhumerus -31.680135765146208 2.8173184711273986 82.86837653427811
lradius 22.59192532385966
lwrist 11.433288075657451
lhand -29.918501375430736 18.225474186078163
lfingers nan
lthumb -3.1489958355154 48.30693973733736
rclavicle -2.526175988687264e-15 -2.7407396798800932e-15
rhumerus -32.33914917329318 -21.895791389145465 -75.8081513691064
rradius 32.50693033829523
rwrist 2.3349788287281266
rhand -17.463477246263956 nan
rfingers nan
rthumb 8.637142013178158 -7.239506333839722
114
root 1.5284227045645284 17.931423762988597 57.09724537436131 -3.377097609087272 1.3217623458842591 -6.666516902018341
lfemur -14.708239378250731 -1.14651251989751 -13.166444548603964
ltibia 60.0614507705271
lfoot -6.922292203769905 0.5373908712611337
ltoes -14.026797594441813
rfemur -8.429325578968356 1.4171936677952697 30.519350255107504
rtibia 32.24988068379692
rfoot -17.439616443109653 -13.01682514334768
rtoes -4.324857868788482
lowerback nan -0.4699922925631266 3.722186064302508
upperback -0.3432331976011602 0.4599016289431434 2.4896778266508184
thorax -6.2403411424587025 0.22707329905572177 1.038921267151683
lowerneck -16.87593485911836 -3.7809523512704164 -1.3844705918593303
upperneck 21.082154905969908 -5.161756917606809 1.4360056321145003
head 9.541840169948225 -2.331901860574191 0.0769434371239657
lclavicle -2.57547935241325e-15 -2.7755780705871243e-15
lhumerus -32.12887938260925 3.204010515802094 82.86421835917707
lradius 22.946986166245654
lwrist 11.61119922948622
lhand -29.94917988063602 18.171775870977253
lfingers nan
lthumb -3.16631184386839 48.290930686740744
rclavicle -2.527488974414657e-15 -2.7467693284426746e-15
rhumerus -32.258932406018324 -21.858401085202097 -75.67707916933935
rradius 32.555273357009526
rwrist 2.168833675998032
rhand -17.469560245898617 nan
rfingers nan
rthumb 8.655854696239432 -7.253660166759637
